<svg xmlns="http://www.w3.org/2000/svg" width="313" height="25" viewBox="0 0 313 25">
    <path fill="#979797" fill-rule="nonzero" d="M156.037 12.428c-3.896 0-8.65.004-15.051.01l-9.452.012-5.09.006-5.31.006c-19.487.023-33.574.034-48.385.034C34.5 12.496 13.239 9.13 0 0l.873 8.179c16.326 11.724 31.272 16.317 71.876 16.317a39171.03 39171.03 0 0 0 53.71-.04l5.09-.006c4.014-.005 6.813-.009 9.45-.011 6.398-.007 11.147-.01 15.038-.011 3.883 0 8.632.004 15.03.01l9.45.012 5.09.006 5.31.006c19.492.023 33.583.034 48.4.034 40.604 0 55.55-4.593 71.876-16.317L312.066 0c-13.24 9.13-34.501 12.496-72.749 12.496a39161.724 39161.724 0 0 1-53.696-.04l-5.09-.006c-4.014-.005-6.814-.009-9.451-.011-6.402-.007-11.155-.01-15.051-.011z"/>
</svg>
