<svg xmlns="http://www.w3.org/2000/svg" width="313" height="25" viewBox="0 0 313 25">
    <path fill="#979797" fill-rule="nonzero" d="M156.037 12.069c-3.896 0-8.65-.004-15.051-.011l-9.452-.011-5.09-.006-5.31-.007C101.648 12.011 87.56 12 72.75 12 34.5 12 13.239 15.366 0 24.496l.873-8.178C17.199 4.594 32.145 0 72.749 0a39171.03 39171.03 0 0 1 53.71.04A1219335.6 1219335.6 0 0 0 141 .059c6.398.007 11.147.01 15.038.01 3.883 0 8.632-.003 15.03-.01l9.45-.011 5.09-.006 5.31-.007C210.409.011 224.5 0 239.317 0c40.604 0 55.55 4.594 71.876 16.318l.873 8.178C298.826 15.366 277.565 12 239.317 12a39161.724 39161.724 0 0 0-53.696.04l-5.09.007-9.451.01c-6.402.008-11.155.011-15.051.012z"/>
</svg>
