<?xml version="1.0" encoding="UTF-8"?>
<svg width="279px" height="148px" viewBox="0 0 279 148" version="1.1" xmlns="http://www.w3.org/2000/svg" xmlns:xlink="http://www.w3.org/1999/xlink">
    <!-- Generator: Sketch 47.1 (45422) - http://www.bohemiancoding.com/sketch -->
    <title>Rectangle</title>
    <desc>Created with Sketch.</desc>
    <defs>
        <path d="M97,302 L360,302 L360,302 C364.418278,302 368,305.581722 368,310 L368,413.261262 L368,413.261262 C368,417.67954 364.418278,421.261262 360,421.261262 L252.688652,421.261262 L218.508123,450 L179.710414,421.261262 L97,421.261262 L97,421.261262 C92.581722,421.261262 89,417.67954 89,413.261262 L89,310 L89,310 C89,305.581722 92.581722,302 97,302 Z" id="path-1"></path>
    </defs>
    <g id="Page-1" stroke="none" stroke-width="1" fill="none" fill-rule="evenodd">
        <g id="Artboard" transform="translate(-89.000000, -302.000000)">
            <g id="Rectangle">
                <use fill="#ECECEC" fill-rule="evenodd" xlink:href="#path-1"></use>
                <path stroke="#979797" stroke-width="4" d="M218.429674,447.452967 L251.959587,419.261262 L360,419.261262 C363.313708,419.261262 366,416.57497 366,413.261262 L366,310 C366,306.686292 363.313708,304 360,304 L97,304 C93.6862915,304 91,306.686292 91,310 L91,413.261262 C91,416.57497 93.6862915,419.261262 97,419.261262 L180.370468,419.261262 L218.429674,447.452967 Z"></path>
            </g>
        </g>
    </g>
</svg>