<?xml version="1.0" encoding="UTF-8"?>
<svg width="1024px" height="1300px" viewBox="0 0 1024 1300" version="1.1" xmlns="http://www.w3.org/2000/svg" xmlns:xlink="http://www.w3.org/1999/xlink">
    <!-- Generator: Sketch 47.1 (45422) - http://www.bohemiancoding.com/sketch -->
    <title>Artboard</title>
    <desc>Created with Sketch.</desc>
    <defs>
        <polygon id="path-1" points="280 76 462 76 462 101.272727 462 215 280 215"></polygon>
        <polygon id="path-2" points="280 590 462 590 462 615.272727 462 729 280 729"></polygon>
        <polygon id="path-3" points="769 590 951 590 951 615.272727 951 729 769 729"></polygon>
        <polygon id="path-4" points="665 76 847 76 847 101.272727 847 215 665 215"></polygon>
        <rect id="path-5" x="512" y="73" width="104" height="39" rx="10"></rect>
        <rect id="path-6" x="516" y="176" width="104" height="39" rx="10"></rect>
        <rect id="path-7" x="482" y="513" width="104" height="39" rx="10"></rect>
        <rect id="path-8" x="484" y="1029" width="104" height="39" rx="10"></rect>
        <rect id="path-9" x="152" y="514" width="104" height="39" rx="10"></rect>
        <rect id="path-10" x="154" y="1030" width="104" height="39" rx="10"></rect>
        <rect id="path-11" x="131" y="244" width="185" height="39" rx="10"></rect>
        <rect id="path-12" x="138" y="759" width="203" height="39" rx="10"></rect>
        <rect id="path-13" x="451" y="244" width="203" height="39" rx="10"></rect>
        <rect id="path-14" x="459" y="759" width="185" height="39" rx="10"></rect>
        <polygon id="path-15" points="98 334 280 334 280 359.272727 280 473 98 473"></polygon>
        <polygon id="path-16" points="100 850 282 850 282 875.272727 282 989 100 989"></polygon>
        <polygon id="path-17" points="462 334 644 334 644 359.272727 644 473 462 473"></polygon>
        <polygon id="path-18" points="464 850 646 850 646 875.272727 646 989 464 989"></polygon>
        <path d="M757.5,216.5 L842.5,583.5" id="path-19"></path>
        <filter x="-8.7%" y="-1.5%" width="117.4%" height="104.1%" filterUnits="objectBoundingBox" id="filter-20">
            <feMorphology radius="0.5" operator="dilate" in="SourceAlpha" result="shadowSpreadOuter1"></feMorphology>
            <feOffset dx="0" dy="2" in="shadowSpreadOuter1" result="shadowOffsetOuter1"></feOffset>
            <feMorphology radius="1" operator="erode" in="SourceAlpha" result="shadowInner"></feMorphology>
            <feOffset dx="0" dy="2" in="shadowInner" result="shadowInner"></feOffset>
            <feComposite in="shadowOffsetOuter1" in2="shadowInner" operator="out" result="shadowOffsetOuter1"></feComposite>
            <feGaussianBlur stdDeviation="2" in="shadowOffsetOuter1" result="shadowBlurOuter1"></feGaussianBlur>
            <feColorMatrix values="0 0 0 0 0   0 0 0 0 0   0 0 0 0 0  0 0 0 0.5 0" type="matrix" in="shadowBlurOuter1"></feColorMatrix>
        </filter>
        <polyline id="path-21" points="646 404 693.993952 451.466546 828 584"></polyline>
        <filter x="-4.1%" y="-3.1%" width="108.2%" height="108.3%" filterUnits="objectBoundingBox" id="filter-22">
            <feMorphology radius="0.5" operator="dilate" in="SourceAlpha" result="shadowSpreadOuter1"></feMorphology>
            <feOffset dx="0" dy="2" in="shadowSpreadOuter1" result="shadowOffsetOuter1"></feOffset>
            <feMorphology radius="1" operator="erode" in="SourceAlpha" result="shadowInner"></feMorphology>
            <feOffset dx="0" dy="2" in="shadowInner" result="shadowInner"></feOffset>
            <feComposite in="shadowOffsetOuter1" in2="shadowInner" operator="out" result="shadowOffsetOuter1"></feComposite>
            <feGaussianBlur stdDeviation="2" in="shadowOffsetOuter1" result="shadowBlurOuter1"></feGaussianBlur>
            <feColorMatrix values="0 0 0 0 0   0 0 0 0 0   0 0 0 0 0  0 0 0 0.5 0" type="matrix" in="shadowBlurOuter1"></feColorMatrix>
        </filter>
        <polyline id="path-23" points="661 729 708.993952 779.367279 843 920"></polyline>
        <filter x="-4.1%" y="-2.9%" width="108.2%" height="107.9%" filterUnits="objectBoundingBox" id="filter-24">
            <feMorphology radius="0.5" operator="dilate" in="SourceAlpha" result="shadowSpreadOuter1"></feMorphology>
            <feOffset dx="0" dy="2" in="shadowSpreadOuter1" result="shadowOffsetOuter1"></feOffset>
            <feMorphology radius="1" operator="erode" in="SourceAlpha" result="shadowInner"></feMorphology>
            <feOffset dx="0" dy="2" in="shadowInner" result="shadowInner"></feOffset>
            <feComposite in="shadowOffsetOuter1" in2="shadowInner" operator="out" result="shadowOffsetOuter1"></feComposite>
            <feGaussianBlur stdDeviation="2" in="shadowOffsetOuter1" result="shadowBlurOuter1"></feGaussianBlur>
            <feColorMatrix values="0 0 0 0 0   0 0 0 0 0   0 0 0 0 0  0 0 0 0.5 0" type="matrix" in="shadowBlurOuter1"></feColorMatrix>
        </filter>
        <polyline id="path-25" points="470 657 548.583504 657.791109 768 660"></polyline>
        <filter x="-2.5%" y="-218.1%" width="105.0%" height="634.8%" filterUnits="objectBoundingBox" id="filter-26">
            <feMorphology radius="0.5" operator="dilate" in="SourceAlpha" result="shadowSpreadOuter1"></feMorphology>
            <feOffset dx="0" dy="2" in="shadowSpreadOuter1" result="shadowOffsetOuter1"></feOffset>
            <feMorphology radius="1" operator="erode" in="SourceAlpha" result="shadowInner"></feMorphology>
            <feOffset dx="0" dy="2" in="shadowInner" result="shadowInner"></feOffset>
            <feComposite in="shadowOffsetOuter1" in2="shadowInner" operator="out" result="shadowOffsetOuter1"></feComposite>
            <feGaussianBlur stdDeviation="2" in="shadowOffsetOuter1" result="shadowBlurOuter1"></feGaussianBlur>
            <feColorMatrix values="0 0 0 0 0   0 0 0 0 0   0 0 0 0 0  0 0 0 0.5 0" type="matrix" in="shadowBlurOuter1"></feColorMatrix>
        </filter>
    </defs>
    <g id="Page-1" stroke="none" stroke-width="1" fill="none" fill-rule="evenodd">
        <g id="Artboard">
            <g id="Rectangle">
                <use fill="#D8D8D8" fill-rule="evenodd" xlink:href="#path-1"></use>
                <path stroke="#979797" stroke-width="1" d="M280.5,76.5 L280.5,214.5 L461.5,214.5 L461.5,76.5 L280.5,76.5 Z"></path>
            </g>
            <g id="Rectangle-Copy-2">
                <use fill="#D8D8D8" fill-rule="evenodd" xlink:href="#path-2"></use>
                <path stroke="#979797" stroke-width="1" d="M280.5,590.5 L280.5,728.5 L461.5,728.5 L461.5,590.5 L280.5,590.5 Z"></path>
            </g>
            <g id="Rectangle-Copy-6">
                <use fill="#D8D8D8" fill-rule="evenodd" xlink:href="#path-3"></use>
                <path stroke="#979797" stroke-width="1" d="M769.5,590.5 L769.5,728.5 L950.5,728.5 L950.5,590.5 L769.5,590.5 Z"></path>
            </g>
            <text id="Start-Page-Stress-Pa" font-family="Helvetica" font-size="18" font-weight="normal" fill="#000000">
                <tspan x="300" y="110">Start Page</tspan>
                <tspan x="300" y="132">Stress Page</tspan>
                <tspan x="300" y="154">Show:</tspan>
                <tspan x="300" y="176">Normal Face</tspan>
            </text>
            <text id="Energy-Page-Show:-No" font-family="Helvetica" font-size="18" font-weight="normal" fill="#000000">
                <tspan x="300" y="624">Energy Page</tspan>
                <tspan x="300" y="646">Show:</tspan>
                <tspan x="300" y="668">Normal Face</tspan>
            </text>
            <text id="Every-Page:-Robot-ey" font-family="Helvetica" font-size="18" font-weight="normal" fill="#000000">
                <tspan x="789" y="624">Every Page:</tspan>
                <tspan x="789" y="646">Robot eye move </tspan>
                <tspan x="789" y="668">according to user’s</tspan>
                <tspan x="789" y="690">mouse</tspan>
            </text>
            <path d="M462.5,121.5 L664.5,121.5" id="Line" stroke="#979797" stroke-linecap="square"></path>
            <path id="Line-decoration-1" d="M664.5,121.5 L653.7,118.5 L653.7,124.5 L664.5,121.5 Z" stroke="#979797" stroke-linecap="square"></path>
            <g id="Rectangle">
                <use fill="#D8D8D8" fill-rule="evenodd" xlink:href="#path-4"></use>
                <path stroke="#979797" stroke-width="1" d="M665.5,76.5 L665.5,214.5 L846.5,214.5 L846.5,76.5 L665.5,76.5 Z"></path>
            </g>
            <text id="Say-Hi-Page-Show:-Ha" font-family="Helvetica" font-size="18" font-weight="normal" fill="#000000">
                <tspan x="687" y="110">Say Hi Page</tspan>
                <tspan x="687" y="132">Show:</tspan>
                <tspan x="687" y="154">Happy Face</tspan>
                <tspan x="687" y="176">Say Hi Bubble</tspan>
            </text>
            <path d="M665.5,161.5 L462.5,161.5" id="Line-2" stroke="#979797" stroke-linecap="square"></path>
            <path id="Line-2-decoration-1" d="M462.5,161.5 L473.3,164.5 L473.3,158.5 L462.5,161.5 Z" stroke="#979797" stroke-linecap="square"></path>
            <g id="Rectangle-2">
                <use fill="#D8D8D8" fill-rule="evenodd" xlink:href="#path-5"></use>
                <rect stroke="#979797" stroke-width="1" x="512.5" y="73.5" width="103" height="38" rx="10"></rect>
            </g>
            <g id="Rectangle-2-Copy">
                <use fill="#D8D8D8" fill-rule="evenodd" xlink:href="#path-6"></use>
                <rect stroke="#979797" stroke-width="1" x="516.5" y="176.5" width="103" height="38" rx="10"></rect>
            </g>
            <g id="Rectangle-2-Copy-5">
                <use fill="#D8D8D8" fill-rule="evenodd" xlink:href="#path-7"></use>
                <rect stroke="#979797" stroke-width="1" x="482.5" y="513.5" width="103" height="38" rx="10"></rect>
            </g>
            <g id="Rectangle-2-Copy-8">
                <use fill="#D8D8D8" fill-rule="evenodd" xlink:href="#path-8"></use>
                <rect stroke="#979797" stroke-width="1" x="484.5" y="1029.5" width="103" height="38" rx="10"></rect>
            </g>
            <g id="Rectangle-2-Copy-4">
                <use fill="#D8D8D8" fill-rule="evenodd" xlink:href="#path-9"></use>
                <rect stroke="#979797" stroke-width="1" x="152.5" y="514.5" width="103" height="38" rx="10"></rect>
            </g>
            <g id="Rectangle-2-Copy-9">
                <use fill="#D8D8D8" fill-rule="evenodd" xlink:href="#path-10"></use>
                <rect stroke="#979797" stroke-width="1" x="154.5" y="1030.5" width="103" height="38" rx="10"></rect>
            </g>
            <g id="Rectangle-2-Copy-2">
                <use fill="#D8D8D8" fill-rule="evenodd" xlink:href="#path-11"></use>
                <rect stroke="#979797" stroke-width="1" x="131.5" y="244.5" width="184" height="38" rx="10"></rect>
            </g>
            <g id="Rectangle-2-Copy-6">
                <use fill="#D8D8D8" fill-rule="evenodd" xlink:href="#path-12"></use>
                <rect stroke="#979797" stroke-width="1" x="138.5" y="759.5" width="202" height="38" rx="10"></rect>
            </g>
            <g id="Rectangle-2-Copy-3">
                <use fill="#D8D8D8" fill-rule="evenodd" xlink:href="#path-13"></use>
                <rect stroke="#979797" stroke-width="1" x="451.5" y="244.5" width="202" height="38" rx="10"></rect>
            </g>
            <g id="Rectangle-2-Copy-7">
                <use fill="#D8D8D8" fill-rule="evenodd" xlink:href="#path-14"></use>
                <rect stroke="#979797" stroke-width="1" x="459.5" y="759.5" width="184" height="38" rx="10"></rect>
            </g>
            <text id="Mouse-Click" font-family="Helvetica" font-size="14" font-weight="normal" fill="#000000">
                <tspan x="529" y="98">Mouse Click</tspan>
            </text>
            <text id="Wait-for-2-sec" font-family="Helvetica" font-size="14" font-weight="normal" fill="#000000">
                <tspan x="528" y="202">Wait for 2 sec</tspan>
            </text>
            <text id="Wait-for-2-sec-Copy-2" font-family="Helvetica" font-size="14" font-weight="normal" fill="#000000">
                <tspan x="494" y="539">Wait for 2 sec</tspan>
            </text>
            <text id="Wait-for-2-sec-Copy-3" font-family="Helvetica" font-size="14" font-weight="normal" fill="#000000">
                <tspan x="496" y="1055">Wait for 2 sec</tspan>
            </text>
            <text id="Wait-for-2-sec-Copy" font-family="Helvetica" font-size="14" font-weight="normal" fill="#000000">
                <tspan x="164" y="540">Wait for 2 sec</tspan>
            </text>
            <text id="Wait-for-2-sec-Copy-4" font-family="Helvetica" font-size="14" font-weight="normal" fill="#000000">
                <tspan x="166" y="1056">Wait for 2 sec</tspan>
            </text>
            <text id="stressful-emotion-su" font-family="Helvetica" font-size="14" font-weight="normal" fill="#000000">
                <tspan x="138" y="270">stressful emotion submitted</tspan>
            </text>
            <text id="low-energy-emotion-s" font-family="Helvetica" font-size="14" font-weight="normal" fill="#000000">
                <tspan x="145" y="785">low energy emotion submitted</tspan>
            </text>
            <text id="less-stress-emotion" font-family="Helvetica" font-size="14" font-weight="normal" fill="#000000">
                <tspan x="458" y="270">less stress emotion submitted</tspan>
            </text>
            <text id="energetic-emotion-su" font-family="Helvetica" font-size="14" font-weight="normal" fill="#000000">
                <tspan x="465" y="785">energetic emotion submitted</tspan>
            </text>
            <g id="Rectangle">
                <use fill="#D8D8D8" fill-rule="evenodd" xlink:href="#path-15"></use>
                <path stroke="#979797" stroke-width="1" d="M98.5,334.5 L98.5,472.5 L279.5,472.5 L279.5,334.5 L98.5,334.5 Z"></path>
            </g>
            <g id="Rectangle-Copy-3">
                <use fill="#D8D8D8" fill-rule="evenodd" xlink:href="#path-16"></use>
                <path stroke="#979797" stroke-width="1" d="M100.5,850.5 L100.5,988.5 L281.5,988.5 L281.5,850.5 L100.5,850.5 Z"></path>
            </g>
            <g id="Rectangle-Copy">
                <use fill="#D8D8D8" fill-rule="evenodd" xlink:href="#path-17"></use>
                <path stroke="#979797" stroke-width="1" d="M462.5,334.5 L462.5,472.5 L643.5,472.5 L643.5,334.5 L462.5,334.5 Z"></path>
            </g>
            <g id="Rectangle-Copy-4">
                <use fill="#D8D8D8" fill-rule="evenodd" xlink:href="#path-18"></use>
                <path stroke="#979797" stroke-width="1" d="M464.5,850.5 L464.5,988.5 L645.5,988.5 L645.5,850.5 L464.5,850.5 Z"></path>
            </g>
            <text id="Energy-Page-Show:-Sa" font-family="Helvetica" font-size="18" font-weight="normal" fill="#000000">
                <tspan x="118" y="368">Energy Page</tspan>
                <tspan x="118" y="390">Show:</tspan>
                <tspan x="118" y="412">Sad Face</tspan>
                <tspan x="118" y="434">Suggestions for </tspan>
                <tspan x="118" y="456">stressful emotion</tspan>
            </text>
            <text id="Stress-Page-Show:-Sa" font-family="Helvetica" font-size="18" font-weight="normal" fill="#000000">
                <tspan x="120" y="884">Stress Page</tspan>
                <tspan x="120" y="906">Show:</tspan>
                <tspan x="120" y="928">Sad Face</tspan>
                <tspan x="120" y="950">Suggestions for </tspan>
                <tspan x="120" y="972">low energy emotion</tspan>
            </text>
            <text id="Energy-Page-Show:-Ha" font-family="Helvetica" font-size="18" font-weight="normal" fill="#000000">
                <tspan x="482" y="368">Energy Page</tspan>
                <tspan x="482" y="390">Show:</tspan>
                <tspan x="482" y="412">Happy Face</tspan>
                <tspan x="482" y="434">Blessing for </tspan>
                <tspan x="482" y="456">less stress emotion</tspan>
            </text>
            <text id="Stress-Page-Show:-Ha" font-family="Helvetica" font-size="18" font-weight="normal" fill="#000000">
                <tspan x="484" y="884">Stress Page</tspan>
                <tspan x="484" y="906">Show:</tspan>
                <tspan x="484" y="928">Happy Face</tspan>
                <tspan x="484" y="950">Blessing for </tspan>
                <tspan x="484" y="972">energetic emotion</tspan>
            </text>
            <path d="M365.5,215.5 L181.5,333.5" id="Line-3" stroke="#979797" stroke-linecap="square"></path>
            <path id="Line-3-decoration-1" d="M181.5,333.5 L192.210641,330.195128 L188.971646,325.144493 L181.5,333.5 Z" stroke="#979797" stroke-linecap="square"></path>
            <path d="M372.5,730.5 L188.5,848.5" id="Line-3-Copy-2" stroke="#979797" stroke-linecap="square"></path>
            <path id="Line-3-Copy-2-decoration-1" d="M188.5,848.5 L199.210641,845.195128 L195.971646,840.144493 L188.5,848.5 Z" stroke="#979797" stroke-linecap="square"></path>
            <path d="M552.5,473.5 L368.5,591.5" id="Line-3-Copy" stroke="#979797" stroke-linecap="square"></path>
            <path id="Line-3-Copy-decoration-1" d="M368.5,591.5 L379.210641,588.195128 L375.971646,583.144493 L368.5,591.5 Z" stroke="#979797" stroke-linecap="square"></path>
            <path d="M554.5,989.5 L370.5,1107.5" id="Line-3-Copy-3" stroke="#979797" stroke-linecap="square"></path>
            <path id="Line-3-Copy-3-decoration-1" d="M370.5,1107.5 L381.210641,1104.19513 L377.971646,1099.14449 L370.5,1107.5 Z" stroke="#979797" stroke-linecap="square"></path>
            <path d="M366.5,214.5 L534.5,334.5" id="Line-4" stroke="#979797" stroke-linecap="square"></path>
            <path id="Line-4-decoration-1" d="M534.5,334.5 L527.455393,325.781427 L523.967964,330.663828 L534.5,334.5 Z" stroke="#979797" stroke-linecap="square"></path>
            <path d="M373.5,729.5 L541.5,849.5" id="Line-4-Copy-2" stroke="#979797" stroke-linecap="square"></path>
            <path id="Line-4-Copy-2-decoration-1" d="M541.5,849.5 L534.455393,840.781427 L530.967964,845.663828 L541.5,849.5 Z" stroke="#979797" stroke-linecap="square"></path>
            <path d="M189.5,473.5 L371.5,592.5" id="Line-4-Copy" stroke="#979797" stroke-linecap="square"></path>
            <path id="Line-4-Copy-decoration-1" d="M371.5,592.5 L364.102476,584.078798 L360.81898,589.100616 L371.5,592.5 Z" stroke="#979797" stroke-linecap="square"></path>
            <path d="M191.5,989.5 L373.5,1108.5" id="Line-4-Copy-3" stroke="#979797" stroke-linecap="square"></path>
            <path id="Line-4-Copy-3-decoration-1" d="M373.5,1108.5 L366.102476,1100.0788 L362.81898,1105.10062 L373.5,1108.5 Z" stroke="#979797" stroke-linecap="square"></path>
            <path d="M373.5,1107.5 L76.5,1107.5" id="Line-5" stroke="#979797" stroke-linecap="square"></path>
            <path d="M75.5,1109.5 L75.5,160.5" id="Line-6" stroke="#979797" stroke-linecap="square"></path>
            <path d="M74.5,157.5 L274.5,157.5" id="Line-7" stroke="#979797" stroke-linecap="square"></path>
            <path id="Line-7-decoration-1" d="M274.5,157.5 L263.7,154.5 L263.7,160.5 L274.5,157.5 Z" stroke="#979797" stroke-linecap="square"></path>
            <g id="Line-8" stroke-linejoin="round" stroke-dasharray="10,5">
                <use fill="black" fill-opacity="1" filter="url(#filter-20)" xlink:href="#path-19"></use>
                <use stroke="#979797" stroke-width="1" xlink:href="#path-19"></use>
            </g>
            <path id="Line-8-decoration-1" d="M757.5,216.5 L762.859493,226.344584 L757.014221,227.698394 L757.5,216.5 Z" stroke-linejoin="round" stroke-dasharray="10,5"></path>
            <path id="Line-8-decoration-2" d="M842.5,583.5 L842.985779,572.301606 L837.140507,573.655416 L842.5,583.5 Z" stroke-linejoin="round" stroke-dasharray="10,5"></path>
            <g id="Line-8-Copy" stroke-linecap="square" stroke-dasharray="10,5">
                <use fill="black" fill-opacity="1" filter="url(#filter-22)" xlink:href="#path-21"></use>
                <use stroke="#979797" stroke-width="1" xlink:href="#path-21"></use>
            </g>
            <path id="Line-8-Copy-decoration-1" d="M646,404 L655.788396,409.461438 L651.56926,413.727453 L646,404 Z" stroke-linecap="square" stroke-dasharray="10,5"></path>
            <path id="Line-8-Copy-decoration-2" d="M828,584 L822.43074,574.272547 L818.211604,578.538562 L828,584 Z" stroke-linecap="square" stroke-dasharray="10,5"></path>
            <g id="Line-8-Copy-3" stroke-linecap="square" stroke-dasharray="10,5" transform="translate(752.000000, 824.500000) scale(-1, 1) translate(-752.000000, -824.500000) ">
                <use fill="black" fill-opacity="1" filter="url(#filter-24)" xlink:href="#path-23"></use>
                <use stroke="#979797" stroke-width="1" xlink:href="#path-23"></use>
            </g>
            <path id="Line-8-Copy-3-decoration-1" d="M661,729 L670.622193,734.749209 L666.278447,738.888276 L661,729 Z" stroke-linecap="square" stroke-dasharray="10,5"></path>
            <path id="Line-8-Copy-3-decoration-2" d="M843,920 L837.721553,910.111724 L833.377807,914.250791 L843,920 Z" stroke-linecap="square" stroke-dasharray="10,5"></path>
            <g id="Line-8-Copy-2" stroke-linecap="square" stroke-dasharray="10,5">
                <use fill="black" fill-opacity="1" filter="url(#filter-26)" xlink:href="#path-25"></use>
                <use stroke="#979797" stroke-width="1" xlink:href="#path-25"></use>
            </g>
            <path id="Line-8-Copy-2-decoration-1" d="M470,657 L480.829653,654.108871 L480.769253,660.108567 L470,657 Z" stroke-linecap="square" stroke-dasharray="10,5"></path>
            <path id="Line-8-Copy-2-decoration-2" d="M768,660 L757.230747,656.891433 L757.170347,662.891129 L768,660 Z" stroke-linecap="square" stroke-dasharray="10,5"></path>
        </g>
    </g>
</svg>